# xmcd
#
# Track frame offsets: 
#        150
#        16126
#        34934
#        56542
#        73230
#        90534
#        110574
#        133070
#        158846
#        174586
#        196174
#        213674
#        236530
#
# Disc length: 3454 seconds
#
# Revision: 0
# Processed by: cddbd v1.5.2PL0 Copyright (c) Steve Scherf et al.
# Submitted via: ExactAudioCopyFreeDBPlugin 1.0
#
DISCID=b40d7c0d
DTITLE=群星 - DTS 震撼十八 试音天后A
DYEAR=2009
DGENRE=Acid
TTITLE0=犯错
TTITLE1=爱情重点
TTITLE2=我要去西藏
TTITLE3=想你想到眼泪流
TTITLE4=车站
TTITLE5=最后一次
TTITLE6=在心里从此永远有个你
TTITLE7=蒙古人
TTITLE8=陪你一起看草原
TTITLE9=丢了幸福的猪
TTITLE10=火苗
TTITLE11=当我孤独的时候还可以抱着你
TTITLE12=地球人都知道我爱你
EXTD=
EXTT0=
EXTT1=
EXTT2=
EXTT3=
EXTT4=
EXTT5=
EXTT6=
EXTT7=
EXTT8=
EXTT9=
EXTT10=
EXTT11=
EXTT12=
PLAYORDER=
